<svg width="18" height="16" viewBox="0 0 18 16" fill="none" xmlns="http://www.w3.org/2000/svg">
<path d="M14.5087 7.84079C14.151 7.84079 13.8117 7.84079 13.4109 7.84079C14.1661 6.70722 14.8899 5.62116 15.6473 4.48535C16.3997 5.61221 17.1241 6.69771 17.8804 7.83073C17.4925 7.83073 17.1481 7.83073 16.8077 7.83073C16.7507 8.31758 16.7217 8.77146 16.6417 9.21639C16.0425 12.5316 13.4434 15.0972 10.108 15.5796C7.41722 15.9686 5.11765 15.1218 3.21943 13.1766C3.0836 13.0374 3.07019 12.9391 3.18533 12.7753C3.533 12.2806 3.86 11.7714 4.19705 11.2689C4.24177 11.2018 4.29543 11.1409 4.34461 11.0777C6.31439 13.3667 8.66761 14.1173 11.4568 12.8122C13.5686 11.8234 14.5618 9.63617 14.5087 7.84079Z" fill="#4A5981"/>
<path d="M2.23304 11.2021C1.47565 10.0658 0.754037 8.98362 0 7.8534C0.390713 7.8534 0.735032 7.8534 1.0514 7.8534C1.14643 7.22681 1.18388 6.6276 1.332 6.05746C2.12181 3.02007 4.03904 1.02291 7.07475 0.260491C9.98079 -0.469511 12.5179 0.354955 14.6324 2.48068C14.7951 2.64445 14.8085 2.7568 14.6727 2.94853C14.2865 3.49351 13.9254 4.05583 13.5481 4.62038C11.5369 2.28616 9.14458 1.5461 6.33134 2.92337C4.27101 3.93174 3.32693 6.06473 3.36885 7.83384C3.71317 7.83384 4.06028 7.83384 4.47783 7.83384C3.71541 8.97803 2.99099 10.0646 2.23304 11.2021Z" fill="#4A5981"/>
</svg>
