<svg width="17" height="17" viewBox="0 0 17 17" fill="none" xmlns="http://www.w3.org/2000/svg">
<path d="M13.1253 12.0461C13.2889 12.1802 13.4758 12.3093 13.6344 12.4667C14.4724 13.2948 15.3024 14.1316 16.1374 14.9622C16.4177 15.2407 16.5345 15.5604 16.3814 15.9386C16.1552 16.4956 15.4654 16.6149 15.0073 16.1673C14.3181 15.494 13.6412 14.8098 12.9618 14.1267C12.6446 13.8076 12.3353 13.4811 12.0076 13.143C10.0488 14.6161 7.90244 15.1184 5.5489 14.5269C3.74748 14.0744 2.31986 13.0477 1.27466 11.5155C-0.798515 8.47647 -0.294976 4.3707 2.43729 1.90157C5.15234 -0.552181 9.24275 -0.636411 12.0765 1.67901C14.8659 3.95754 15.8982 8.44081 13.1253 12.0461ZM13.1137 7.39316C13.1192 4.21207 10.5849 1.65626 7.41366 1.64519C4.2215 1.63412 1.65524 4.18072 1.65032 7.36426C1.6454 10.5533 4.19753 13.111 7.38538 13.1116C10.5609 13.1122 13.1087 10.5693 13.1137 7.39316Z" fill="#4A5981"/>
</svg>
