<svg width="10" height="17" viewBox="0 0 10 17" fill="none" xmlns="http://www.w3.org/2000/svg">
<path d="M6.34977 8.139C5.50491 7.29617 4.68191 6.47776 3.86096 5.6568C2.70327 4.50014 1.54661 3.34296 0.391468 2.18477C-0.123283 1.66849 -0.122775 1.20257 0.387399 0.687822C0.494724 0.57948 0.602557 0.471138 0.710391 0.363304C1.19666 -0.121946 1.67835 -0.121946 2.17072 0.368391C2.84976 1.04438 3.52576 1.72292 4.20328 2.40044C5.8635 4.06168 7.52373 5.72293 9.18396 7.38366C9.71804 7.91774 9.71651 8.38163 9.17938 8.91927C6.84774 11.2519 4.51609 13.5846 2.18394 15.9172C1.66868 16.4325 1.19869 16.4345 0.68801 15.9249C0.567969 15.8053 0.446911 15.6863 0.328396 15.5653C-0.108024 15.1197 -0.111584 14.6202 0.330431 14.1761C1.50236 12.9986 2.67835 11.8247 3.85333 10.6497C4.62037 9.88214 5.38792 9.1151 6.15496 8.34755C6.21294 8.28905 6.26788 8.22649 6.34977 8.139Z" fill="#F01716"/>
</svg>
