<svg width="12" height="15" viewBox="0 0 12 15" fill="none" xmlns="http://www.w3.org/2000/svg">
<path d="M0.525967 7.05457C0.525967 5.22327 0.524643 3.39197 0.52685 1.56023C0.527733 0.860472 0.938318 0.2936 1.59481 0.0750627C1.74889 0.0238499 1.90827 0.00354143 2.07162 0.00398292C3.63803 0.00486589 5.20487 0.00795632 6.77127 9.51266e-06C6.95361 -0.000873466 6.98628 0.0596106 6.98496 0.224286C6.97789 1.15848 6.98098 2.09223 6.98186 3.02642C6.98275 3.75797 7.38053 4.15177 8.11738 4.15222C9.11028 4.15266 10.1032 4.15663 11.0961 4.14824C11.2625 4.14692 11.3027 4.19195 11.3023 4.35618C11.297 7.0996 11.3005 9.84301 11.297 12.5864C11.2957 13.4681 10.6259 14.1312 9.74382 14.1321C7.19157 14.1343 4.63932 14.1338 2.08751 14.1321C1.1935 14.1316 0.528175 13.4668 0.52685 12.571C0.524201 10.7317 0.525967 8.89293 0.525967 7.05457ZM5.83223 5.52348C4.8402 5.52348 3.84817 5.52216 2.85659 5.52436C2.57227 5.52481 2.38375 5.69257 2.38155 5.93451C2.37934 6.17159 2.57448 6.34907 2.84997 6.35966C2.90868 6.36187 2.9674 6.3601 3.02612 6.3601C4.78943 6.3601 6.55318 6.3601 8.31649 6.3601C8.49264 6.3601 8.66968 6.36805 8.84539 6.35745C9.13501 6.34024 9.31028 6.12258 9.26436 5.85372C9.22904 5.64842 9.05377 5.52481 8.78623 5.52436C7.80171 5.5226 6.81719 5.52348 5.83223 5.52348ZM5.84591 7.73093C4.84682 7.73093 3.84729 7.72916 2.8482 7.73181C2.56786 7.73269 2.37757 7.90885 2.38155 8.1499C2.38508 8.37903 2.57448 8.55298 2.83628 8.56623C2.88749 8.56887 2.93915 8.56667 2.99036 8.56667C4.88612 8.56667 6.78187 8.56667 8.67762 8.56667C8.74385 8.56667 8.81051 8.57152 8.87585 8.56358C9.13368 8.53135 9.28909 8.34371 9.26701 8.09604C9.24715 7.87265 9.07232 7.73181 8.79992 7.73137C7.8154 7.7296 6.83088 7.73093 5.84591 7.73093ZM3.78372 10.7746C4.10026 10.7746 4.41637 10.7781 4.73292 10.7737C5.02827 10.7693 5.21414 10.5953 5.20796 10.3397C5.20222 10.0942 5.02121 9.94014 4.72806 9.93926C4.10998 9.93705 3.49189 9.93749 2.87381 9.93926C2.57315 9.94014 2.37934 10.1066 2.38155 10.3551C2.38375 10.6002 2.58331 10.771 2.87911 10.7741C3.18064 10.7768 3.48218 10.7746 3.78372 10.7746Z" fill="#4A5981"/>
<path d="M7.87522 0.172852C8.97453 1.17547 10.0544 2.1984 11.1171 3.23855C11.1003 3.26416 11.084 3.28977 11.0672 3.31581C10.9599 3.31581 10.8526 3.31581 10.7453 3.31581C9.84912 3.31581 8.95246 3.31493 8.05624 3.3167C7.92688 3.31714 7.81209 3.30213 7.81165 3.13878C7.80988 2.16309 7.81077 1.18784 7.81077 0.212144C7.8324 0.198899 7.85359 0.186096 7.87522 0.172852Z" fill="#4A5981"/>
</svg>
