<svg width="10" height="7" viewBox="0 0 10 7" fill="none" xmlns="http://www.w3.org/2000/svg">
<path d="M4.85519 4.71869C5.35631 4.21637 5.84291 3.72705 6.33102 3.23894C7.01873 2.55062 7.70674 1.86291 8.39535 1.17611C8.70231 0.87006 8.97933 0.870362 9.28538 1.17369C9.3498 1.2375 9.41422 1.30162 9.47833 1.36573C9.76684 1.65485 9.76684 1.94124 9.4753 2.23399C9.07339 2.63772 8.66995 3.03964 8.26713 3.44247C7.27941 4.42957 6.2917 5.41668 5.30429 6.40379C4.98675 6.72133 4.71094 6.72042 4.39128 6.40107C3.00437 5.01476 1.61746 3.62846 0.230549 2.24185C-0.0758057 1.93549 -0.077015 1.65606 0.226012 1.35242C0.297082 1.28105 0.367848 1.20908 0.439824 1.13861C0.704747 0.879132 1.00173 0.877015 1.26574 1.13982C1.96585 1.8366 2.66384 2.5358 3.36244 3.2344C3.81879 3.69045 4.27485 4.14681 4.7312 4.60286C4.76598 4.63734 4.80318 4.67 4.85519 4.71869Z" fill="#4A5981"/>
</svg>
