<svg width="10" height="12" viewBox="0 0 10 12" fill="none" xmlns="http://www.w3.org/2000/svg">
<path d="M4.66681 4.22461C5.94047 4.22461 7.21413 4.22461 8.48778 4.22461C8.76396 4.22461 8.76791 4.22496 8.75428 4.50229C8.6664 6.30794 8.57709 8.11324 8.48706 9.91889C8.4763 10.134 8.47559 10.3519 8.43793 10.5627C8.35184 11.0461 7.91354 11.3979 7.41068 11.3986C5.58108 11.4007 3.75112 11.401 1.92151 11.3986C1.3419 11.3979 0.890323 10.9492 0.861271 10.3554C0.78021 8.69554 0.700226 7.03538 0.619882 5.37557C0.605535 5.07865 0.589754 4.78138 0.577917 4.48446C0.567516 4.23125 0.574689 4.22531 0.828273 4.22531C2.10767 4.22461 3.38742 4.22461 4.66681 4.22461ZM2.51476 7.35713C2.51476 8.09156 2.5144 8.82599 2.51476 9.56042C2.51476 9.82971 2.64891 9.99443 2.8677 9.99723C3.08757 10 3.22853 9.83391 3.2296 9.56916C3.23032 9.40024 3.22996 9.23097 3.22996 9.06205C3.22996 7.76806 3.22853 6.47406 3.2314 5.18042C3.23176 5.02339 3.20234 4.87406 3.05134 4.8104C2.95378 4.76949 2.81641 4.76564 2.71526 4.79851C2.56713 4.84643 2.51333 4.98247 2.51369 5.1367C2.51584 5.87673 2.51512 6.6171 2.51476 7.35713ZM4.30886 7.36657C4.30886 8.101 4.3085 8.83543 4.30922 9.56986C4.30957 9.83391 4.45233 10.0007 4.67184 9.99723C4.88561 9.99408 5.02406 9.83146 5.02406 9.5772C5.02477 8.10834 5.02441 6.63948 5.0237 5.17097C5.0237 5.11887 5.02477 5.06466 5.0115 5.015C4.96631 4.84538 4.78733 4.73032 4.6166 4.75515C4.4369 4.78138 4.31065 4.92861 4.30993 5.12866C4.30778 5.87463 4.30886 6.6206 4.30886 7.36657ZM6.81815 7.37496C6.81815 6.65207 6.81851 5.92954 6.81815 5.20665C6.81815 4.92092 6.68867 4.75515 6.46485 4.75235C6.23745 4.74955 6.10295 4.91392 6.10295 5.19755C6.10259 6.64893 6.10295 8.1003 6.10295 9.55132C6.10295 9.57476 6.10259 9.59784 6.10331 9.62127C6.11012 9.8416 6.26256 9.99968 6.46521 9.99723C6.66177 9.99478 6.81636 9.84125 6.81707 9.63036C6.81994 8.8788 6.81779 8.12688 6.81815 7.37496Z" fill="#F01716"/>
<path d="M2.85545 1.59986C2.87159 1.38827 2.86441 1.19872 2.90387 1.01931C3.01147 0.530036 3.43937 0.20339 3.94905 0.201641C4.42752 0.199892 4.90563 0.199543 5.38411 0.201641C5.98202 0.204089 6.45188 0.659785 6.46121 1.24313C6.463 1.3533 6.46157 1.46346 6.46157 1.60021C6.53617 1.60021 6.5993 1.60021 6.66207 1.60021C7.24204 1.60021 7.82202 1.59881 8.402 1.6009C8.94503 1.603 9.32738 1.97511 9.33169 2.50216C9.33348 2.71199 9.33384 2.92218 9.33169 3.13202C9.32917 3.38802 9.19395 3.52616 8.93643 3.52616C6.09034 3.52721 3.24389 3.52721 0.397803 3.52616C0.140992 3.52616 0.00469542 3.38697 0.00218469 3.13237C3.26427e-05 2.91029 -0.00140206 2.68856 0.00218469 2.46718C0.0100755 1.98246 0.396727 1.6051 0.895286 1.60125C1.48136 1.59671 2.06744 1.60021 2.65315 1.59986C2.71807 1.59986 2.78299 1.59986 2.85545 1.59986ZM5.74171 1.59461C5.74171 1.46836 5.74637 1.35854 5.74063 1.24908C5.73023 1.05043 5.58891 0.907043 5.38482 0.904595C4.90671 0.899 4.42824 0.900049 3.95012 0.904245C3.77724 0.905644 3.62516 1.0214 3.60328 1.17913C3.58463 1.31378 3.59934 1.45262 3.59934 1.59461C4.31741 1.59461 5.01539 1.59461 5.74171 1.59461Z" fill="#F01716"/>
</svg>
