<svg width="16" height="16" viewBox="0 0 16 16" fill="none" xmlns="http://www.w3.org/2000/svg">
<path d="M7.98689 15.9998C3.57646 15.9953 -0.00649108 12.3983 8.82975e-06 7.9804C0.00650873 3.57146 3.60696 -0.00848477 8.02589 1.51047e-05C12.4328 0.00851498 16.0103 3.61196 15.9998 8.0319C15.9893 12.4278 12.3928 16.0043 7.98689 15.9998ZM8.00339 1.246C4.27845 1.244 1.25449 4.25945 1.24599 7.9839C1.23749 11.7188 4.26195 14.7518 7.99689 14.7538C11.7218 14.7558 14.7458 11.7403 14.7543 8.0154C14.7628 4.28095 11.7378 1.2475 8.00339 1.246Z" fill="#939393"/>
<path d="M8.62053 5.94905C8.62053 6.47354 8.62703 6.99803 8.61653 7.52202C8.61303 7.68302 8.66853 7.77852 8.79503 7.87202C9.45752 8.36001 10.1125 8.859 10.7725 9.3505C11.003 9.52199 11.1505 9.73399 11.086 10.0305C10.991 10.4705 10.499 10.6795 10.132 10.4135C9.28352 9.79899 8.45153 9.1625 7.61454 8.53201C7.45055 8.40851 7.38205 8.23151 7.38205 8.03002C7.38105 6.79853 7.37655 5.56655 7.38455 4.33507C7.38705 3.97508 7.66304 3.70908 7.99554 3.70608C8.33603 3.70308 8.60953 3.97558 8.61603 4.35157C8.62553 4.88406 8.61853 5.41705 8.61853 5.94955C8.61953 5.94905 8.62003 5.94905 8.62053 5.94905Z" fill="#939393"/>
</svg>
