<svg width="38" height="45" viewBox="0 0 38 45" fill="none" xmlns="http://www.w3.org/2000/svg">
<path d="M19.3354 16.0981C24.4301 16.0981 29.5248 16.0981 34.6195 16.0981C35.7242 16.0981 35.74 16.0995 35.6855 17.2089C35.334 24.4316 34.9768 31.6529 34.6166 38.8756C34.5736 39.7359 34.5707 40.6074 34.4201 41.451C34.0758 43.3843 32.3225 44.7917 30.3111 44.7944C22.9925 44.8028 15.6726 44.8042 8.3541 44.7944C6.03559 44.7917 4.22928 42.9968 4.11307 40.6214C3.78882 33.9821 3.46888 27.3414 3.1475 20.702C3.09011 19.5143 3.02698 18.3252 2.97964 17.1376C2.93803 16.1247 2.96673 16.1009 3.98107 16.1009C9.09872 16.0981 14.2178 16.0981 19.3354 16.0981ZM10.7271 28.6284C10.7271 31.5661 10.7257 34.5039 10.7271 37.4417C10.7271 38.5188 11.2637 39.1777 12.1389 39.1889C13.0184 39.2001 13.5822 38.5356 13.5865 37.4766C13.5894 36.8009 13.588 36.1239 13.588 35.4482C13.588 30.2721 13.5822 25.0961 13.5937 19.9214C13.5951 19.2933 13.4775 18.696 12.8735 18.4414C12.4832 18.2777 11.9337 18.2623 11.5291 18.3938C10.9366 18.5854 10.7214 19.1296 10.7228 19.7466C10.7314 22.7067 10.7286 25.6682 10.7271 28.6284ZM17.9036 28.6662C17.9036 31.6039 17.9022 34.5417 17.905 37.4794C17.9065 38.5356 18.4775 39.2029 19.3555 39.1889C20.2106 39.1763 20.7644 38.5258 20.7644 37.5088C20.7673 31.6333 20.7659 25.7578 20.763 19.8837C20.763 19.6752 20.7673 19.4584 20.7142 19.2597C20.5334 18.5812 19.8175 18.121 19.1346 18.2203C18.4158 18.3252 17.9108 18.9142 17.9079 19.7144C17.8993 22.6983 17.9036 25.6822 17.9036 28.6662ZM27.9409 28.6997C27.9409 25.8081 27.9423 22.9179 27.9409 20.0263C27.9409 18.8834 27.423 18.2203 26.5277 18.2091C25.6181 18.1979 25.0801 18.8554 25.0801 19.99C25.0786 25.7955 25.0801 31.6011 25.0801 37.4053C25.0801 37.499 25.0786 37.5913 25.0815 37.6851C25.1088 38.5664 25.7185 39.1987 26.5291 39.1889C27.3154 39.1791 27.9337 38.565 27.9366 37.7214C27.9481 34.7151 27.9395 31.7074 27.9409 28.6997Z" fill="#4A5981"/>
<path d="M12.088 5.59871C12.1525 4.75236 12.1238 3.99414 12.2816 3.27649C12.7121 1.31938 14.4237 0.0127771 16.4624 0.00578247C18.3763 -0.00121219 20.2888 -0.00261112 22.2027 0.00578247C24.5944 0.015575 26.4739 1.83838 26.5112 4.1718C26.5184 4.61247 26.5126 5.05313 26.5126 5.60011C26.811 5.60011 27.0636 5.60011 27.3146 5.60011C29.6346 5.60011 31.9545 5.59452 34.2745 5.60291C36.4466 5.6113 37.976 7.09977 37.9933 9.20796C38.0004 10.0473 38.0019 10.8881 37.9933 11.7274C37.9832 12.7515 37.4423 13.304 36.4122 13.304C25.0277 13.3082 13.6418 13.3082 2.25725 13.304C1.22999 13.304 0.684798 12.7473 0.674755 11.7288C0.666146 10.8405 0.660407 9.95359 0.674755 9.06807C0.706318 7.12915 2.25295 5.6197 4.24721 5.60431C6.59154 5.58612 8.93587 5.60011 11.2788 5.59871C11.5385 5.59871 11.7981 5.59871 12.088 5.59871ZM23.6331 5.57773C23.6331 5.07272 23.6518 4.63345 23.6288 4.19559C23.5872 3.40099 23.022 2.82743 22.2056 2.81764C20.2931 2.79525 18.3792 2.79945 16.4667 2.81624C15.7752 2.82183 15.1669 3.28488 15.0793 3.9158C15.0047 4.45439 15.0636 5.00976 15.0636 5.57773C17.9359 5.57773 20.7278 5.57773 23.6331 5.57773Z" fill="#4A5981"/>
</svg>
