<svg width="19" height="16" viewBox="0 0 19 16" fill="none" xmlns="http://www.w3.org/2000/svg">
<path d="M3.60751 2.90455C2.68884 2.90455 1.78253 2.91036 0.876214 2.89946C0.701056 2.89728 0.505548 2.87039 0.356555 2.78826C0.0622028 2.62618 -0.0475433 2.34564 0.0185951 2.01422C0.0840067 1.68862 0.371091 1.45459 0.729401 1.45096C1.55286 1.44223 2.37632 1.44805 3.20051 1.44732C3.33206 1.44732 3.46361 1.44732 3.60824 1.44732C3.70127 0.759774 4.00216 0.178338 4.6839 0.0802203C5.42668 -0.0266187 6.20871 -0.0266187 6.9515 0.0794935C7.63396 0.176884 7.9334 0.759774 8.02861 1.44732C8.18342 1.44732 8.32732 1.44732 8.4705 1.44732C11.6197 1.44732 14.7689 1.44732 17.9174 1.44732C18.0388 1.44732 18.1609 1.43933 18.2801 1.45604C18.6267 1.50401 18.892 1.80854 18.9007 2.15595C18.9102 2.51862 18.6442 2.84277 18.283 2.8951C18.1638 2.91254 18.0409 2.90455 17.9203 2.90455C14.7711 2.90527 11.6219 2.90455 8.47341 2.90455C8.3295 2.90455 8.18632 2.90455 8.02861 2.90455C7.93267 3.6059 7.6187 4.18443 6.91879 4.284C6.19854 4.38648 5.44049 4.38721 4.72023 4.28473C4.02106 4.18516 3.70272 3.60954 3.60751 2.90455Z" fill="#F01716"/>
<path d="M9.42264 7.26055C9.60289 6.24304 10.1211 5.80842 11.103 5.80696C11.4061 5.80624 11.7084 5.80696 12.0115 5.80696C13.1576 5.80696 13.5777 6.13111 13.8612 7.26055C14.4085 7.26055 14.9637 7.26055 15.519 7.26055C16.3788 7.26055 17.2386 7.25692 18.0991 7.26201C18.5861 7.26492 18.9102 7.57235 18.9008 8.00625C18.8913 8.42343 18.5723 8.71487 18.102 8.71705C16.8185 8.72141 15.5343 8.71851 14.2507 8.71851C14.1192 8.71851 13.9876 8.71851 13.843 8.71851C13.7471 9.42132 13.4324 9.99912 12.7332 10.098C12.0129 10.2004 11.2542 10.2019 10.5346 10.098C9.84055 9.99694 9.51132 9.42931 9.42919 8.71851C9.26784 8.71851 9.12393 8.71851 8.98075 8.71851C6.31632 8.71851 3.65189 8.71851 0.986731 8.71851C0.877711 8.71851 0.767965 8.72505 0.659673 8.71342C0.277378 8.67199 -0.00461841 8.34929 0.00410313 7.97136C0.0120979 7.60724 0.289007 7.30489 0.658219 7.26564C0.765785 7.25401 0.876258 7.26055 0.985277 7.26055C3.64971 7.26055 6.31414 7.26055 8.9793 7.26055C9.12103 7.26055 9.2642 7.26055 9.42264 7.26055Z" fill="#F01716"/>
<path d="M3.60703 14.5329C2.64257 14.5329 1.69919 14.538 0.75581 14.5307C0.348805 14.5278 0.0442775 14.2531 0.00503056 13.8846C-0.0334896 13.5241 0.206353 13.176 0.560302 13.096C0.664961 13.072 0.776887 13.0771 0.88518 13.0764C1.6723 13.0749 2.45942 13.0757 3.24727 13.0757C3.36646 13.0757 3.48493 13.0757 3.5954 13.0757C3.83379 11.9942 4.29676 11.6228 5.37314 11.6221C5.68784 11.6221 6.00327 11.6221 6.31798 11.6221C7.33186 11.6228 7.83698 12.0414 8.02813 13.0757C8.16113 13.0757 8.30285 13.0757 8.44458 13.0757C11.5938 13.0757 14.743 13.0757 17.8915 13.0757C18.0128 13.0757 18.1349 13.0684 18.2541 13.0815C18.619 13.1229 18.8959 13.4332 18.8995 13.7959C18.9032 14.1586 18.6335 14.4769 18.2701 14.5249C18.1509 14.5409 18.0281 14.5329 17.9075 14.5329C14.7583 14.5329 11.609 14.5329 8.46057 14.5329C8.31739 14.5329 8.17421 14.5329 8.03975 14.5329C7.79483 15.618 7.33549 15.9858 6.26129 15.9865C5.94658 15.9865 5.63115 15.9865 5.31645 15.9865C4.30548 15.9858 3.79454 15.5628 3.60703 14.5329Z" fill="#F01716"/>
</svg>
