<svg width="13" height="11" viewBox="0 0 13 11" fill="none" xmlns="http://www.w3.org/2000/svg">
<path d="M7.33182 7.98676C7.33222 8.32041 7.33418 8.65366 7.33104 8.9873C7.32947 9.16786 7.39345 9.31035 7.56341 9.38218C7.73887 9.45637 7.89156 9.40613 8.02659 9.27463C9.48481 7.85723 10.9442 6.44219 12.4016 5.02518C12.6226 4.81047 12.6211 4.59812 12.3985 4.38184C10.9501 2.97386 9.49933 1.56824 8.0521 0.159085C7.90569 0.0162068 7.74554 -0.0442416 7.55595 0.0354404C7.36558 0.115515 7.32908 0.283122 7.33025 0.473103C7.33418 1.12037 7.32672 1.76803 7.33536 2.41491C7.33732 2.56839 7.28943 2.61706 7.14027 2.62255C6.05456 2.66063 5.02183 2.92126 4.06447 3.43154C1.97232 4.54709 0.656982 6.26163 0.151806 8.58732C0.051713 9.04893 0.0057869 9.51525 0.000291824 9.98627C-0.00245571 10.2406 0.0976372 10.3992 0.281338 10.4455C0.492123 10.4985 0.643244 10.4208 0.776309 10.1923C1.74584 8.52727 3.16481 7.45843 5.03282 6.98465C5.74917 6.80292 6.47926 6.78996 7.2121 6.79742C7.33065 6.7986 7.33222 6.86101 7.33182 6.94658C7.33065 7.29357 7.33182 7.64017 7.33182 7.98676Z" fill="#F01716"/>
</svg>
