<svg width="14" height="14" viewBox="0 0 14 14" fill="none" xmlns="http://www.w3.org/2000/svg">
<path d="M4.9675 6.75253C4.90873 6.81556 4.85847 6.87263 4.80439 6.92672C3.36447 8.36706 1.9237 9.80655 0.483787 11.2473C-0.0558088 11.7873 -0.0728442 12.5757 0.441199 13.0969C0.959074 13.6221 1.76357 13.6127 2.307 13.0731C3.75671 11.6323 5.206 10.1907 6.65571 8.74993C6.70468 8.70095 6.75835 8.65666 6.84608 8.57745C6.97682 8.72054 7.09479 8.86109 7.22384 8.99013C8.5773 10.3461 9.93161 11.7017 11.2881 13.0552C11.6688 13.4351 12.1266 13.5569 12.6368 13.3861C13.13 13.2209 13.4222 12.861 13.5001 12.347C13.5636 11.9292 13.4401 11.5612 13.1381 11.2592C11.7029 9.82401 10.2681 8.38878 8.8307 6.95525C8.77576 6.90074 8.70038 6.86709 8.61691 6.81216C8.7204 6.7027 8.77534 6.64138 8.83368 6.58346C10.2834 5.14226 11.734 3.70234 13.1828 2.26073C13.6462 1.79949 13.7637 1.2518 13.5184 0.730096C13.133 -0.0893068 12.0014 -0.254124 11.3166 0.414941C10.8801 0.841251 10.4525 1.27693 10.021 1.70835C9.00276 2.72707 7.98447 3.74621 6.96575 4.76493C6.91635 4.81433 6.86311 4.8599 6.78262 4.93443C6.3776 4.51919 5.98494 4.11034 5.58503 3.70873C4.49349 2.61251 3.39854 1.51926 2.30444 0.425162C1.89347 0.014183 1.26869 -0.108471 0.729523 0.112989C-0.0541052 0.434958 -0.254697 1.48689 0.365391 2.12444C1.18692 2.96855 2.02762 3.79434 2.86022 4.62737C3.51736 5.28493 4.17536 5.94165 4.8325 6.59964C4.87636 6.64478 4.91554 6.69376 4.9675 6.75253Z" fill="black"/>
</svg>
